<?xml version="1.0" standalone="no"?>
<!DOCTYPE svg PUBLIC "-//W3C//DTD SVG 20010904//EN"
 "http://www.w3.org/TR/2001/REC-SVG-20010904/DTD/svg10.dtd">
<svg version="1.0" xmlns="http://www.w3.org/2000/svg"
 width="608.000000pt" height="608.000000pt" viewBox="0 0 608.000000 608.000000"
 preserveAspectRatio="xMidYMid meet">
<metadata>
Created by potrace 1.14, written by Peter Selinger 2001-2017
</metadata>
<g transform="translate(0.000000,608.000000) scale(0.100000,-0.100000)"
fill="#000000" stroke="none">
<path d="M2905 5569 c-15 -5 -32 -6 -36 -3 -4 2 -10 0 -14 -6 -4 -6 -10 -8
-15 -5 -15 9 -206 -50 -460 -145 -111 -41 -429 -147 -460 -154 -14 -3 -72 -17
-130 -31 -58 -14 -118 -27 -135 -30 -16 -3 -56 -13 -87 -21 -51 -13 -92 -22
-188 -40 -14 -3 -50 -11 -81 -19 -30 -8 -64 -16 -75 -18 -10 -2 -26 -7 -34
-10 -90 -33 -266 -76 -320 -77 -94 -1 -158 -53 -155 -127 3 -69 70 -106 195
-107 121 0 178 11 405 79 97 29 103 30 161 39 22 4 55 11 74 16 19 5 49 12 67
15 25 4 127 27 223 51 8 2 47 11 85 19 39 9 75 18 80 19 6 2 13 4 17 5 4 1 26
8 49 16 23 9 51 17 63 19 31 6 176 58 381 136 226 87 310 114 328 107 15 -6
21 -42 33 -197 9 -101 9 -687 0 -780 -5 -68 -12 -292 -21 -695 -9 -395 -4
-362 -95 -603 -44 -118 -114 -309 -156 -425 -41 -117 -78 -219 -81 -227 -4 -8
-7 -17 -8 -20 -1 -3 -5 -12 -8 -20 -6 -15 -101 -285 -172 -490 -20 -58 -39
-112 -42 -120 -3 -8 -7 -19 -9 -25 -1 -5 -9 -30 -17 -55 -25 -72 -37 -135 -43
-228 -3 -48 -7 -105 -10 -127 -3 -22 -8 -53 -10 -70 -6 -47 -6 -232 1 -320 4
-44 8 -114 9 -155 5 -138 31 -215 95 -279 39 -39 87 -60 126 -56 44 6 85 18
85 26 0 5 6 9 13 9 42 0 250 227 302 331 22 43 73 168 79 194 1 6 13 44 25 85
13 41 25 86 26 100 2 14 11 52 20 85 10 33 18 88 19 122 0 35 3 63 6 63 10 0
31 93 36 155 3 33 8 67 11 75 3 8 7 24 8 35 1 11 5 36 8 55 24 123 26 180 32
725 6 494 10 678 20 777 5 57 35 147 79 243 13 28 35 75 49 105 15 30 27 60
27 65 1 6 5 15 10 20 4 6 38 78 75 160 37 83 82 184 101 225 20 41 41 89 49
105 7 17 22 48 32 70 10 22 18 42 19 45 3 16 35 79 42 84 5 3 7 -16 5 -42 -3
-26 -6 -87 -8 -137 -2 -49 -7 -101 -10 -115 -3 -14 -8 -41 -10 -60 -3 -19 -7
-53 -10 -75 -2 -22 -7 -80 -11 -129 -3 -48 -8 -98 -10 -110 -25 -107 -27 -490
-4 -546 39 -94 138 -128 218 -75 81 53 95 139 96 600 1 171 5 316 9 323 5 7
10 23 11 35 2 12 6 40 10 62 11 66 16 115 21 207 2 49 9 97 15 107 5 11 10 38
10 60 0 92 30 41 70 -119 35 -138 127 -405 172 -496 50 -102 99 -156 162 -177
94 -32 187 -6 261 74 52 56 151 180 196 243 29 42 71 102 109 156 36 53 120
186 120 193 0 4 4 7 8 7 11 0 6 -241 -6 -300 -8 -43 -8 -417 1 -450 2 -8 7
-23 11 -32 4 -9 6 -68 4 -132 -5 -128 7 -194 48 -264 56 -96 139 -152 224
-151 51 0 70 9 126 58 l39 35 -1 75 c-1 61 -6 88 -29 136 -32 68 -33 78 -21
560 3 138 9 426 11 640 3 215 7 406 9 425 6 56 17 134 22 152 3 9 7 66 9 126
5 130 -8 175 -60 211 -56 38 -128 28 -190 -26 -26 -22 -42 -64 -49 -125 -3
-26 -10 -56 -15 -65 -5 -10 -15 -38 -22 -63 -20 -71 -73 -182 -123 -258 -25
-39 -51 -82 -58 -96 -6 -14 -15 -26 -20 -26 -4 0 -8 -4 -8 -9 0 -6 -45 -81
-100 -168 -54 -87 -118 -189 -142 -228 -23 -38 -45 -72 -48 -75 -4 -3 -25 -33
-48 -67 -59 -88 -140 -183 -156 -183 -7 0 -17 15 -23 33 -6 17 -48 138 -93
267 -164 474 -227 625 -283 680 -18 17 -46 54 -63 83 -41 70 -87 101 -138 92
-41 -6 -49 -13 -92 -78 -25 -38 -33 -52 -91 -157 -87 -157 -263 -504 -358
-706 -111 -237 -139 -292 -145 -289 -5 3 -5 127 2 760 1 121 -1 238 -5 260 -4
22 -9 93 -12 158 -9 219 -28 345 -57 377 -42 45 -108 59 -183 39z m-90 -3151
c-3 -68 -8 -208 -10 -313 -3 -104 -8 -221 -11 -260 -3 -38 -7 -90 -8 -115 -2
-25 -12 -92 -24 -150 -11 -58 -22 -118 -25 -135 -25 -156 -53 -266 -90 -355
-64 -154 -184 -361 -188 -324 -16 158 -20 243 -19 419 0 192 1 200 19 285 6
30 13 64 15 75 4 20 101 316 113 345 3 8 7 20 9 25 3 16 65 188 74 210 5 11
28 74 50 140 23 66 51 145 62 175 19 51 25 74 27 93 1 4 3 7 7 7 3 0 2 -55 -1
-122z"/>
<path d="M1565 4793 c-11 -2 -42 -8 -70 -13 -27 -6 -59 -12 -70 -14 -95 -19
-349 -127 -475 -202 -172 -101 -344 -233 -370 -284 -37 -70 22 -161 106 -164
18 0 35 -3 38 -6 9 -9 19 -289 18 -480 -4 -453 -4 -659 1 -1011 4 -207 7 -564
9 -793 l2 -417 30 -30 c42 -43 80 -60 128 -57 36 2 50 10 94 53 l52 51 -5 152
-5 152 31 -11 c70 -25 120 8 226 149 21 28 43 52 48 52 4 0 6 4 3 9 -3 4 3 16
14 26 10 9 45 51 77 93 32 42 66 86 75 97 14 17 140 177 166 210 51 67 77 101
82 105 3 3 27 33 53 67 26 34 53 68 60 75 71 73 187 263 236 386 90 225 101
454 27 560 -30 44 -119 101 -179 114 -23 5 -58 13 -77 17 -22 5 -44 3 -60 -5
-14 -6 -45 -12 -70 -12 -85 0 -184 -16 -233 -37 -10 -4 -20 -5 -24 -2 -5 5 84
126 111 152 6 6 24 28 40 50 16 22 36 47 43 55 23 25 77 101 130 180 106 160
183 351 183 456 0 116 -109 248 -220 269 -39 7 -194 12 -225 8z m166 -215 c51
-12 61 -55 33 -149 -23 -77 -120 -269 -136 -269 -5 0 -8 -5 -8 -10 0 -9 -74
-116 -91 -130 -3 -3 -25 -32 -50 -65 -24 -33 -52 -69 -63 -80 -10 -11 -30 -36
-44 -55 -15 -19 -30 -37 -33 -40 -26 -23 -255 -322 -266 -349 -13 -30 -13 -39
2 -77 16 -42 60 -74 103 -76 9 0 64 20 122 44 100 43 234 83 310 92 19 3 35 5
35 6 0 6 108 23 140 22 73 -2 148 -11 157 -20 5 -5 11 -22 14 -38 3 -16 9 -33
13 -37 7 -7 -9 -81 -45 -207 -35 -120 -112 -254 -226 -396 -35 -43 -103 -131
-152 -194 -49 -63 -92 -117 -95 -120 -3 -3 -20 -23 -36 -45 -16 -22 -35 -47
-42 -55 -7 -8 -51 -64 -98 -125 -48 -60 -94 -119 -103 -130 -9 -11 -35 -42
-57 -70 -53 -66 -74 -86 -78 -77 -2 4 -5 50 -6 102 -2 52 -5 118 -9 145 -3 28
-6 165 -7 305 -2 140 -6 271 -9 290 -4 19 -9 80 -11 135 -3 55 -8 118 -11 140
-5 44 -12 215 -20 550 -3 121 -7 247 -9 280 -3 33 -7 115 -9 183 -5 128 -17
186 -41 196 -29 11 -14 34 48 73 155 100 221 133 337 170 138 44 210 64 255
69 28 3 54 10 59 14 8 8 92 6 127 -2z"/>
</g>
</svg>
