<?xml version="1.0" standalone="no"?>
<!DOCTYPE svg PUBLIC "-//W3C//DTD SVG 20010904//EN"
 "http://www.w3.org/TR/2001/REC-SVG-20010904/DTD/svg10.dtd">
<svg version="1.0" xmlns="http://www.w3.org/2000/svg"
 width="28.2000000pt" height="25.6000000pt" viewBox="0 0 426.000000 384.000000"
 preserveAspectRatio="xMidYMid meet">

<g transform="translate(0.000000,384.000000) scale(0.100000,-0.100000)"
fill="#AAAAAA" stroke="none">
<path d="M1986 3684 c-43 -8 -140 -37 -215 -65 -306 -114 -383 -138 -541 -174
-91 -20 -172 -39 -180 -42 -8 -4 -18 -5 -23 -5 -14 3 -212 -47 -287 -72 -41
-14 -94 -26 -118 -26 -87 0 -130 -36 -120 -100 11 -74 154 -87 343 -31 61 17
117 35 125 38 8 3 18 6 22 5 11 -2 273 56 403 90 66 17 179 53 250 80 378 144
351 136 359 97 3 -17 6 -46 6 -64 0 -17 2 -34 5 -37 7 -7 9 -519 2 -538 -3 -8
-9 -159 -13 -335 -9 -446 -9 -445 -28 -490 -56 -131 -372 -1014 -402 -1120 -9
-33 -17 -97 -18 -142 -1 -45 -5 -85 -9 -89 -11 -11 -8 -292 2 -299 6 -3 7 -27
4 -54 -8 -67 20 -156 61 -197 45 -45 92 -52 150 -24 63 30 184 162 224 242 38
78 94 247 88 265 -3 7 -1 15 4 18 11 7 34 141 26 154 -4 5 -2 12 3 15 11 7 35
132 27 145 -4 5 -1 13 4 16 6 4 10 17 9 28 -1 12 1 29 4 37 16 38 28 356 26
663 -1 185 1 340 5 344 3 3 6 26 6 49 0 44 23 101 128 324 27 58 84 184 127
280 42 96 80 178 84 182 9 10 6 -63 -4 -85 -4 -10 -5 -40 -2 -67 3 -27 2 -52
-2 -54 -7 -5 -20 -118 -26 -231 -1 -22 -6 -48 -10 -59 -5 -10 -9 -91 -9 -180
-1 -145 1 -164 19 -196 13 -21 35 -40 57 -48 33 -13 41 -12 75 4 21 11 43 30
50 44 24 52 36 202 30 396 -3 106 -1 196 3 200 12 13 42 243 36 270 -4 13 -2
26 4 29 5 3 10 21 10 38 0 64 16 56 34 -16 68 -265 142 -455 196 -501 68 -57
160 -54 222 7 76 75 198 241 304 414 l19 31 0 -98 c0 -54 -3 -102 -7 -106 -13
-13 -10 -342 3 -350 8 -5 10 -35 6 -97 -5 -76 -3 -98 15 -146 37 -98 122 -160
200 -144 17 3 45 21 63 38 30 30 32 38 30 88 -2 37 -10 68 -25 92 -22 36 -22
39 -15 261 4 123 8 372 10 553 1 181 5 333 7 337 3 5 11 61 18 124 14 130 5
173 -44 205 -61 40 -159 -17 -160 -92 -1 -21 -4 -42 -7 -48 -4 -5 -16 -42 -28
-82 -13 -43 -43 -104 -74 -152 -29 -44 -86 -136 -127 -203 -166 -271 -273
-419 -291 -401 -4 4 -46 121 -93 260 -92 274 -152 415 -185 432 -11 7 -31 33
-43 59 -37 75 -110 84 -151 17 -65 -105 -217 -395 -312 -597 l-112 -238 -5
178 c-3 97 -1 181 3 186 11 12 12 350 2 360 -5 4 -8 38 -8 74 -1 102 -15 254
-27 285 -12 31 -55 58 -90 56 -13 -1 -59 -8 -102 -15z m-11 -2156 c-3 -24 -7
-137 -9 -253 -2 -115 -7 -218 -11 -228 -4 -9 -5 -27 -2 -38 3 -12 2 -29 -3
-38 -5 -9 -16 -65 -25 -126 -17 -113 -38 -207 -57 -260 -24 -66 -110 -233
-128 -250 -20 -18 -20 -17 -20 27 0 24 -3 47 -6 51 -7 7 -8 344 -1 367 3 8 10
42 17 75 12 56 57 190 180 535 29 80 53 152 55 160 5 21 4 20 10 20 2 0 2 -19
0 -42z"/>
<path d="M1055 3143 c-11 -2 -27 -7 -35 -10 -8 -3 -18 -6 -22 -5 -14 3 -177
-57 -238 -88 -91 -46 -246 -145 -306 -197 -56 -47 -68 -76 -49 -120 12 -29 69
-63 82 -49 16 16 33 -18 27 -55 -4 -21 -3 -46 1 -56 8 -21 11 -355 3 -369 -5
-8 -4 -349 1 -349 1 0 4 -240 6 -534 l4 -534 30 -31 c25 -24 40 -31 72 -31 35
0 46 6 76 39 l36 39 -6 103 c-3 57 -3 104 1 103 4 0 16 -4 27 -8 33 -13 71 7
114 62 22 29 91 117 153 196 62 78 140 178 173 220 33 43 93 118 133 167 90
111 155 239 182 359 32 145 24 235 -25 294 -26 31 -110 75 -125 66 -5 -3 -11
-1 -15 5 -8 13 -72 13 -80 0 -4 -6 -15 -8 -26 -5 -24 8 -170 -14 -186 -27 -9
-7 -13 -7 -13 0 0 6 35 53 78 104 143 173 211 281 256 406 28 80 32 121 15
173 -15 43 -74 107 -116 125 -31 13 -180 18 -228 7z m181 -154 c38 -31 -16
-178 -116 -319 -29 -41 -101 -133 -159 -204 -210 -256 -230 -284 -214 -309 4
-7 8 -19 8 -27 0 -8 15 -23 34 -32 31 -16 37 -16 70 -1 110 48 155 63 236 79
50 9 97 19 105 22 18 6 127 3 153 -4 10 -3 17 -15 17 -29 0 -13 4 -27 10 -30
6 -4 6 -12 1 -23 -5 -9 -14 -44 -20 -77 -16 -86 -77 -207 -152 -299 -35 -43
-107 -133 -159 -201 -187 -240 -259 -331 -292 -368 l-33 -38 -3 108 c-2 59 -6
112 -10 118 -4 5 -5 90 -3 187 2 97 0 181 -3 187 -4 5 -9 62 -12 127 -2 64 -7
121 -10 126 -4 5 -5 114 -5 243 1 150 -2 236 -8 240 -6 3 -8 24 -5 48 3 23 1
67 -4 97 -6 34 -7 61 -1 72 12 21 -11 82 -36 95 -14 8 -4 18 57 55 40 25 92
55 114 66 64 33 252 92 289 92 19 0 36 4 39 8 7 13 95 6 112 -9z"/>
</g>
</svg>
